<?xml version="1.0" standalone="no"?>
<!DOCTYPE svg PUBLIC "-//W3C//DTD SVG 20010904//EN"
 "http://www.w3.org/TR/2001/REC-SVG-20010904/DTD/svg10.dtd">
<svg version="1.0" xmlns="http://www.w3.org/2000/svg"
 width="700.000000pt" height="700.000000pt" viewBox="0 0 700.000000 700.000000"
 preserveAspectRatio="xMidYMid meet">
<metadata>
Created by potrace 1.11, written by Peter Selinger 2001-2013
</metadata>
<g transform="translate(0.000000,700.000000) scale(0.100000,-0.100000)"
fill="#000000" stroke="none">
<path d="M4175 4966 c-145 -63 -235 -454 -205 -893 13 -205 38 -324 90 -431
36 -75 55 -100 163 -207 137 -137 173 -193 206 -320 59 -230 40 -645 -38 -827
-41 -97 -121 -156 -192 -141 -72 14 -154 122 -205 270 l-33 95 -11 -42 c-10
-36 -8 -53 10 -114 53 -176 152 -316 235 -332 54 -10 107 10 148 56 47 51 71
100 101 202 41 144 51 244 50 508 0 207 -4 260 -21 345 -42 199 -86 276 -247
434 -115 112 -160 185 -190 303 -59 234 -40 666 38 841 74 167 197 188 295 50
22 -30 48 -74 58 -99 10 -24 21 -44 24 -44 4 0 9 21 13 47 5 39 1 57 -24 110
-77 166 -169 231 -265 189z"/>
<path d="M1080 3500 l0 -1460 171 0 c195 0 213 5 278 75 128 139 221 483 261
965 15 173 15 665 0 840 -39 480 -133 826 -261 965 -65 70 -83 75 -278 75
l-171 0 0 -1460z m338 1328 c162 -41 284 -366 334 -893 16 -168 16 -702 0
-870 -38 -398 -118 -687 -227 -821 -55 -67 -80 -74 -259 -74 l-156 0 0 1328
c0 731 3 1332 7 1335 11 12 252 8 301 -5z"/>
<path d="M2590 3500 l0 -1460 195 0 c217 0 238 4 292 61 106 113 164 422 149
804 -12 330 -53 498 -146 598 -25 28 -37 48 -30 52 20 13 69 123 89 201 31
127 42 241 42 457 0 348 -42 564 -131 677 -51 64 -74 70 -279 70 l-181 0 0
-1460z m384 1326 c102 -42 161 -226 173 -531 13 -359 -43 -612 -151 -684 -38
-25 -46 -26 -203 -29 l-163 -3 0 630 0 631 155 0 c111 0 165 -4 189 -14z m39
-1380 c68 -29 118 -117 150 -264 18 -84 21 -131 21 -357 1 -164 -4 -286 -11
-331 -30 -173 -83 -277 -157 -313 -38 -19 -61 -21 -214 -21 l-172 0 0 650 0
650 175 0 c127 0 185 -4 208 -14z"/>
<path d="M5290 3500 c0 -1288 2 -1460 15 -1460 13 0 15 88 17 708 l3 707 280
0 280 0 3 -707 c2 -620 4 -708 17 -708 13 0 15 172 15 1460 0 1291 -2 1460
-15 1460 -13 0 -15 -83 -15 -685 l0 -685 -285 0 -285 0 0 685 c0 602 -2 685
-15 685 -13 0 -15 -169 -15 -1460z"/>
</g>
</svg>
