<svg width="260" height="260" viewBox="0 0 260 260" fill="none" xmlns="http://www.w3.org/2000/svg">
<path d="M40 184.371H51.4167C60.7998 184.371 67.1022 161.55 67.1022 130C67.1022 98.4499 60.7998 75.6288 51.4167 75.6288H40V184.371ZM41.4296 179.563V80.4371H51.3261C60.085 80.4371 65.6625 101.261 65.6625 130C65.6625 158.739 60.085 179.563 51.3261 179.563H41.4296ZM112.94 128.447C116.232 125.044 118.347 116.796 118.347 103.295C118.347 85.0975 114.501 75.6288 108.329 75.6288H96.3186V184.371H109.175C116.404 184.371 119.957 174.126 119.957 155.78C119.957 140.393 117.541 131.073 112.94 128.447ZM108.37 80.2892C113.786 80.2892 116.957 88.2044 116.957 103.591C116.957 118.978 113.786 126.893 108.37 126.893H97.7583V80.2892H108.37ZM109.256 179.711H97.7583V131.406H109.256C115.306 131.406 118.518 138.84 118.518 155.632C118.518 172.239 115.306 179.711 109.256 179.711ZM156.916 185C164.054 185 167.225 171.944 167.225 157.186C167.225 117.72 148.58 137.915 148.58 102.962C148.58 90.2387 151.328 79.6604 157.339 79.6604C159.997 79.6604 163.047 82.7673 165.413 89.1291L166.047 84.9496C163.842 78.8837 160.55 75 157.288 75C150.231 75 147.191 88.3524 147.191 102.962C147.191 143.204 165.836 122.529 165.836 157.334C165.836 169.909 163.087 180.34 156.866 180.34C152.768 180.34 149.003 174.126 147.1 166.21L146.345 169.909C148.409 178.786 152.557 185 156.916 185ZM218.56 75.6288V126.745H197.801V75.6288H196.361V184.371H197.801V131.553H218.56V184.371H220V75.6288H218.56Z" fill="black"/>
</svg>
