<svg xmlns="http://www.w3.org/2000/svg" viewBox="0 0 240 60" width="240" height="60">
	<style>
		tspan { white-space:pre }
	</style>
	<path id="D  B  S  H " fill="#000000" d="M30.58 33L41.92 33C51.24 33 57.5 26.83 57.5 18.3C57.5 9.77 51.24 3.6 41.92 3.6L30.58 3.6ZM32 31.7L32 4.9L41.83 4.9C50.53 4.9 56.07 10.53 56.07 18.3C56.07 26.07 50.53 31.7 41.83 31.7ZM103.03 17.88C106.3 16.96 108.4 14.73 108.4 11.08C108.4 6.16 104.58 3.6 98.45 3.6L86.52 3.6L86.52 33L99.29 33C106.47 33 110 30.23 110 25.27C110 21.11 107.6 18.59 103.03 17.88ZM98.49 4.86C103.87 4.86 107.02 7 107.02 11.16C107.02 15.32 103.87 17.46 98.49 17.46L87.95 17.46L87.95 4.86ZM99.37 31.74L87.95 31.74L87.95 18.68L99.37 18.68C105.38 18.68 108.57 20.69 108.57 25.23C108.57 29.72 105.38 31.74 99.37 31.74ZM146.71 33.17C153.8 33.17 156.95 29.64 156.95 25.65C156.95 14.98 138.43 20.44 138.43 10.99C138.43 7.55 141.16 4.69 147.13 4.69C149.77 4.69 152.8 5.53 155.15 7.25L155.78 6.12C153.59 4.48 150.32 3.43 147.08 3.43C140.07 3.43 137.05 7.04 137.05 10.99C137.05 21.87 155.57 16.28 155.57 25.69C155.57 29.09 152.84 31.91 146.66 31.91C142.59 31.91 138.85 30.23 136.96 28.09L136.21 29.09C138.26 31.49 142.38 33.17 146.71 33.17ZM207.94 3.6L207.94 17.42L187.32 17.42L187.32 3.6L185.89 3.6L185.89 33L187.32 33L187.32 18.72L207.94 18.72L207.94 33L209.37 33L209.37 3.6Z" />
	<path id="Doing Sports in Health " fill="#000000" d="M14.54 53L20.42 53C25.12 53 28.27 50.07 28.27 45.6C28.27 42.43 25.99 40.4 22.15 40.4L17.06 40.4ZM17.27 51.02L19 42.38L21.9 42.38C24.56 42.38 25.91 43.68 25.91 45.75C25.91 48.77 23.88 51.02 20.5 51.02ZM33.94 53.13C37.27 53.13 39.67 50.71 39.67 47.49C39.67 44.94 37.83 43.28 34.99 43.28C31.66 43.28 29.28 45.67 29.28 48.9C29.28 51.43 31.12 53.13 33.94 53.13ZM34.09 51.2C32.47 51.2 31.55 50.28 31.55 48.79C31.55 46.66 32.95 45.19 34.86 45.19C36.48 45.19 37.4 46.11 37.4 47.6C37.4 49.72 35.99 51.2 34.09 51.2ZM44.35 41.8C45.26 41.8 45.88 41.19 45.88 40.31C45.88 39.64 45.34 39.1 44.53 39.1C43.61 39.1 43 39.73 43 40.54C43 41.23 43.54 41.8 44.35 41.8ZM40.8 53L43.05 53L44.96 43.39L42.71 43.39ZM53.15 43.28C51.87 43.28 50.72 43.66 49.84 44.45L50.05 43.39L47.91 43.39L46 53L48.25 53L49.26 48.01C49.64 46.14 50.77 45.24 52.41 45.24C53.72 45.24 54.34 45.87 54.34 46.99C54.34 47.2 54.32 47.46 54.26 47.73L53.22 53L55.47 53L56.53 47.67C56.6 47.26 56.66 46.88 56.66 46.52C56.66 44.41 55.27 43.28 53.15 43.28ZM67.73 43.39L67.42 44.97C66.77 43.78 65.46 43.28 64.02 43.28C60.85 43.28 58.57 45.6 58.57 48.59C58.57 51.06 60.37 52.57 62.87 52.57C64.15 52.57 65.21 52.15 66.02 51.45L65.93 51.92C65.57 53.76 64.56 54.69 62.45 54.69C61.01 54.69 59.72 54.26 58.98 53.61L57.81 55.3C58.91 56.17 60.46 56.62 62.31 56.62C65.57 56.62 67.53 55.12 68.25 51.54L69.89 43.39ZM63.37 50.66C61.79 50.66 60.83 49.81 60.83 48.46C60.83 46.56 62.22 45.19 64.15 45.19C65.75 45.19 66.67 46.03 66.67 47.38C66.67 49.29 65.3 50.66 63.37 50.66ZM80.22 53.18C83.53 53.18 85.78 51.6 85.78 49.09C85.78 45.24 79.43 46.39 79.43 44.04C79.43 42.94 80.56 42.16 82.47 42.16C83.73 42.16 84.95 42.51 85.89 43.14L86.81 41.28C85.75 40.6 84.22 40.22 82.6 40.22C79.34 40.22 77.11 41.8 77.11 44.29C77.11 48.34 83.46 47.11 83.46 49.45C83.46 50.57 82.27 51.24 80.44 51.24C78.91 51.24 77.38 50.71 76.33 49.87L75.34 51.7C76.33 52.55 78.24 53.18 80.22 53.18ZM94.19 43.28C92.93 43.28 91.87 43.68 91.06 44.4L91.25 43.39L89.11 43.39L86.5 56.49L88.75 56.49L89.72 51.58C90.35 52.6 91.51 53.13 93.02 53.13C96.08 53.13 98.42 50.77 98.42 47.49C98.42 44.83 96.55 43.28 94.19 43.28ZM92.84 51.2C91.22 51.2 90.3 50.28 90.3 48.79C90.3 46.66 91.7 45.19 93.61 45.19C95.23 45.19 96.15 46.11 96.15 47.6C96.15 49.72 94.75 51.2 92.84 51.2ZM104.3 53.13C107.63 53.13 110.03 50.71 110.03 47.49C110.03 44.94 108.19 43.28 105.35 43.28C102.02 43.28 99.64 45.67 99.64 48.9C99.64 51.43 101.48 53.13 104.3 53.13ZM104.45 51.2C102.83 51.2 101.91 50.28 101.91 48.79C101.91 46.66 103.31 45.19 105.22 45.19C106.84 45.19 107.76 46.11 107.76 47.6C107.76 49.72 106.36 51.2 104.45 51.2ZM114.96 44.63L115.21 43.39L113.07 43.39L111.16 53L113.41 53L114.37 48.27C114.76 46.27 115.93 45.37 117.7 45.37C117.91 45.37 118.06 45.39 118.25 45.42L118.67 43.28C117.05 43.28 115.84 43.62 114.96 44.63ZM123.06 45.26L125.65 45.26L126.01 43.46L123.42 43.46L123.87 41.26L121.62 41.26L121.19 43.46L119.62 43.46L119.26 45.26L120.83 45.26L119.91 49.8C119.86 50.07 119.84 50.32 119.84 50.55C119.84 52.17 120.95 53.13 122.59 53.13C123.38 53.13 124.23 52.98 124.91 52.55L124.52 50.89C124.14 51.15 123.69 51.27 123.26 51.27C122.47 51.27 122.12 50.86 122.12 50.19C122.12 50.07 122.14 49.92 122.16 49.78ZM129.9 53.13C132.6 53.13 134.51 51.99 134.51 49.89C134.51 46.68 129.31 47.92 129.31 46.27C129.31 45.6 130.01 45.1 131.47 45.1C132.4 45.1 133.46 45.3 134.31 45.84L135.14 44.11C134.33 43.59 132.98 43.28 131.68 43.28C128.95 43.28 127.11 44.5 127.11 46.52C127.11 49.78 132.31 48.55 132.31 50.14C132.31 50.86 131.61 51.29 130.13 51.29C128.86 51.29 127.56 50.91 126.79 50.35L125.85 52.08C126.64 52.68 128.23 53.13 129.9 53.13ZM144.41 41.8C145.33 41.8 145.94 41.19 145.94 40.31C145.94 39.64 145.4 39.1 144.59 39.1C143.67 39.1 143.06 39.73 143.06 40.54C143.06 41.23 143.6 41.8 144.41 41.8ZM140.86 53L143.11 53L145.02 43.39L142.77 43.39ZM153.21 43.28C151.93 43.28 150.78 43.66 149.9 44.45L150.11 43.39L147.97 43.39L146.06 53L148.31 53L149.32 48.01C149.7 46.14 150.83 45.24 152.47 45.24C153.79 45.24 154.4 45.87 154.4 46.99C154.4 47.2 154.38 47.46 154.33 47.73L153.28 53L155.53 53L156.59 47.67C156.67 47.26 156.72 46.88 156.72 46.52C156.72 44.41 155.33 43.28 153.21 43.28ZM174.95 40.4L173.93 45.57L167.41 45.57L168.44 40.4L166.1 40.4L163.58 53L165.92 53L166.98 47.65L173.5 47.65L172.43 53L174.76 53L177.28 40.4ZM188 47.49C188 44.86 186.24 43.28 183.58 43.28C180.35 43.28 178.03 45.64 178.03 48.9C178.03 51.45 179.87 53.13 182.77 53.13C184.24 53.13 185.7 52.69 186.71 51.79L185.77 50.23C185.11 50.86 184.1 51.22 183 51.22C181.15 51.22 180.26 50.39 180.23 48.86L187.86 48.86C187.95 48.45 188 47.98 188 47.49ZM183.47 45.08C184.96 45.08 185.95 45.89 185.93 47.37L180.43 47.37C180.84 45.96 181.94 45.08 183.47 45.08ZM198.14 43.39L197.87 44.81C197.22 43.78 196.09 43.28 194.59 43.28C191.51 43.28 189.17 45.62 189.17 48.9C189.17 51.56 191.05 53.13 193.4 53.13C194.66 53.13 195.73 52.73 196.54 52.01L196.34 53L198.48 53L200.39 43.39ZM193.98 51.2C192.36 51.2 191.44 50.28 191.44 48.79C191.44 46.66 192.85 45.19 194.75 45.19C196.37 45.19 197.29 46.11 197.29 47.6C197.29 49.72 195.89 51.2 193.98 51.2ZM201.43 53L203.68 53L206.35 39.64L204.1 39.64ZM211.17 45.26L213.76 45.26L214.12 43.46L211.53 43.46L211.98 41.26L209.73 41.26L209.3 43.46L207.73 43.46L207.37 45.26L208.94 45.26L208.02 49.8C207.97 50.07 207.95 50.32 207.95 50.55C207.95 52.17 209.06 53.13 210.7 53.13C211.49 53.13 212.34 52.98 213.02 52.55L212.63 50.89C212.25 51.15 211.8 51.27 211.37 51.27C210.58 51.27 210.23 50.86 210.23 50.19C210.23 50.07 210.25 49.92 210.27 49.78ZM221.88 43.28C220.67 43.28 219.58 43.6 218.71 44.34L219.65 39.64L217.4 39.64L214.73 53L216.98 53L217.99 48.01C218.37 46.14 219.5 45.24 221.14 45.24C222.46 45.24 223.07 45.87 223.07 46.99C223.07 47.2 223.05 47.46 223 47.73L221.95 53L224.2 53L225.26 47.67C225.34 47.28 225.39 46.88 225.39 46.54C225.39 44.41 223.99 43.28 221.88 43.28Z" />
</svg>