<svg xmlns="http://www.w3.org/2000/svg" viewBox="0 0 240 60" width="240" height="60">
	<style>
		tspan { white-space:pre }
	</style>
	<path id="D  B  S  H " fill="#ffffff" d="M30.78 35L42.12 35C51.44 35 57.7 28.83 57.7 20.3C57.7 11.77 51.44 5.6 42.12 5.6L30.78 5.6ZM32.2 33.7L32.2 6.9L42.03 6.9C50.73 6.9 56.27 12.53 56.27 20.3C56.27 28.07 50.73 33.7 42.03 33.7ZM103.23 19.88C106.5 18.96 108.6 16.73 108.6 13.08C108.6 8.16 104.78 5.6 98.65 5.6L86.72 5.6L86.72 35L99.49 35C106.67 35 110.2 32.23 110.2 27.27C110.2 23.11 107.8 20.59 103.23 19.88ZM98.69 6.86C104.07 6.86 107.22 9 107.22 13.16C107.22 17.32 104.07 19.46 98.69 19.46L88.15 19.46L88.15 6.86ZM99.57 33.74L88.15 33.74L88.15 20.68L99.57 20.68C105.58 20.68 108.77 22.69 108.77 27.23C108.77 31.72 105.58 33.74 99.57 33.74ZM146.91 35.17C154 35.17 157.15 31.64 157.15 27.65C157.15 16.98 138.63 22.44 138.63 12.99C138.63 9.55 141.36 6.69 147.33 6.69C149.97 6.69 153 7.53 155.35 9.25L155.98 8.12C153.79 6.48 150.52 5.43 147.28 5.43C140.27 5.43 137.25 9.04 137.25 12.99C137.25 23.87 155.77 18.28 155.77 27.69C155.77 31.09 153.04 33.91 146.86 33.91C142.79 33.91 139.05 32.23 137.16 30.09L136.41 31.09C138.46 33.49 142.58 35.17 146.91 35.17ZM208.14 5.6L208.14 19.42L187.52 19.42L187.52 5.6L186.09 5.6L186.09 35L187.52 35L187.52 20.72L208.14 20.72L208.14 35L209.57 35L209.57 5.6Z" />
	<path id="Doing Sports in Health " fill="#ffffff" d="M14.34 53L20.22 53C24.92 53 28.07 50.07 28.07 45.6C28.07 42.43 25.79 40.4 21.95 40.4L16.86 40.4ZM17.07 51.02L18.8 42.38L21.7 42.38C24.36 42.38 25.71 43.68 25.71 45.75C25.71 48.77 23.68 51.02 20.3 51.02ZM33.74 53.13C37.07 53.13 39.47 50.71 39.47 47.49C39.47 44.94 37.63 43.28 34.79 43.28C31.46 43.28 29.08 45.67 29.08 48.9C29.08 51.43 30.92 53.13 33.74 53.13ZM33.89 51.2C32.27 51.2 31.35 50.28 31.35 48.79C31.35 46.66 32.75 45.19 34.66 45.19C36.28 45.19 37.2 46.11 37.2 47.6C37.2 49.72 35.79 51.2 33.89 51.2ZM44.15 41.8C45.06 41.8 45.68 41.19 45.68 40.31C45.68 39.64 45.14 39.1 44.33 39.1C43.41 39.1 42.8 39.73 42.8 40.54C42.8 41.23 43.34 41.8 44.15 41.8ZM40.6 53L42.85 53L44.76 43.39L42.51 43.39ZM52.95 43.28C51.67 43.28 50.52 43.66 49.64 44.45L49.85 43.39L47.71 43.39L45.8 53L48.05 53L49.06 48.01C49.44 46.14 50.57 45.24 52.21 45.24C53.52 45.24 54.14 45.87 54.14 46.99C54.14 47.2 54.12 47.46 54.06 47.73L53.02 53L55.27 53L56.33 47.67C56.4 47.26 56.46 46.88 56.46 46.52C56.46 44.41 55.07 43.28 52.95 43.28ZM67.53 43.39L67.22 44.97C66.57 43.78 65.26 43.28 63.82 43.28C60.65 43.28 58.37 45.6 58.37 48.59C58.37 51.06 60.17 52.57 62.67 52.57C63.95 52.57 65.01 52.15 65.82 51.45L65.73 51.92C65.37 53.76 64.36 54.69 62.25 54.69C60.81 54.69 59.52 54.26 58.78 53.61L57.61 55.3C58.71 56.17 60.26 56.62 62.11 56.62C65.37 56.62 67.33 55.12 68.05 51.54L69.69 43.39ZM63.17 50.66C61.59 50.66 60.63 49.81 60.63 48.46C60.63 46.56 62.02 45.19 63.95 45.19C65.55 45.19 66.47 46.03 66.47 47.38C66.47 49.29 65.1 50.66 63.17 50.66ZM80.02 53.18C83.33 53.18 85.58 51.6 85.58 49.09C85.58 45.24 79.23 46.39 79.23 44.04C79.23 42.94 80.36 42.16 82.27 42.16C83.53 42.16 84.75 42.51 85.69 43.14L86.61 41.28C85.55 40.6 84.02 40.22 82.4 40.22C79.14 40.22 76.91 41.8 76.91 44.29C76.91 48.34 83.26 47.11 83.26 49.45C83.26 50.57 82.07 51.24 80.24 51.24C78.71 51.24 77.18 50.71 76.13 49.87L75.14 51.7C76.13 52.55 78.04 53.18 80.02 53.18ZM93.99 43.28C92.73 43.28 91.67 43.68 90.86 44.4L91.05 43.39L88.91 43.39L86.3 56.49L88.55 56.49L89.52 51.58C90.15 52.6 91.31 53.13 92.82 53.13C95.88 53.13 98.22 50.77 98.22 47.49C98.22 44.83 96.35 43.28 93.99 43.28ZM92.64 51.2C91.02 51.2 90.1 50.28 90.1 48.79C90.1 46.66 91.5 45.19 93.41 45.19C95.03 45.19 95.95 46.11 95.95 47.6C95.95 49.72 94.55 51.2 92.64 51.2ZM104.1 53.13C107.43 53.13 109.83 50.71 109.83 47.49C109.83 44.94 107.99 43.28 105.15 43.28C101.82 43.28 99.44 45.67 99.44 48.9C99.44 51.43 101.28 53.13 104.1 53.13ZM104.25 51.2C102.63 51.2 101.71 50.28 101.71 48.79C101.71 46.66 103.11 45.19 105.02 45.19C106.64 45.19 107.56 46.11 107.56 47.6C107.56 49.72 106.16 51.2 104.25 51.2ZM114.76 44.63L115.01 43.39L112.87 43.39L110.96 53L113.21 53L114.17 48.27C114.56 46.27 115.73 45.37 117.5 45.37C117.71 45.37 117.86 45.39 118.05 45.42L118.47 43.28C116.85 43.28 115.64 43.62 114.76 44.63ZM122.86 45.26L125.45 45.26L125.81 43.46L123.22 43.46L123.67 41.26L121.42 41.26L120.99 43.46L119.42 43.46L119.06 45.26L120.63 45.26L119.71 49.8C119.66 50.07 119.64 50.32 119.64 50.55C119.64 52.17 120.75 53.13 122.39 53.13C123.18 53.13 124.03 52.98 124.71 52.55L124.32 50.89C123.94 51.15 123.49 51.27 123.06 51.27C122.27 51.27 121.92 50.86 121.92 50.19C121.92 50.07 121.94 49.92 121.96 49.78ZM129.7 53.13C132.4 53.13 134.31 51.99 134.31 49.89C134.31 46.68 129.11 47.92 129.11 46.27C129.11 45.6 129.81 45.1 131.27 45.1C132.2 45.1 133.26 45.3 134.11 45.84L134.94 44.11C134.13 43.59 132.78 43.28 131.48 43.28C128.75 43.28 126.91 44.5 126.91 46.52C126.91 49.78 132.11 48.55 132.11 50.14C132.11 50.86 131.41 51.29 129.93 51.29C128.66 51.29 127.36 50.91 126.59 50.35L125.65 52.08C126.44 52.68 128.03 53.13 129.7 53.13ZM144.21 41.8C145.13 41.8 145.74 41.19 145.74 40.31C145.74 39.64 145.2 39.1 144.39 39.1C143.47 39.1 142.86 39.73 142.86 40.54C142.86 41.23 143.4 41.8 144.21 41.8ZM140.66 53L142.91 53L144.82 43.39L142.57 43.39ZM153.01 43.28C151.73 43.28 150.58 43.66 149.7 44.45L149.91 43.39L147.77 43.39L145.86 53L148.11 53L149.12 48.01C149.5 46.14 150.63 45.24 152.27 45.24C153.59 45.24 154.2 45.87 154.2 46.99C154.2 47.2 154.18 47.46 154.13 47.73L153.08 53L155.33 53L156.39 47.67C156.47 47.26 156.52 46.88 156.52 46.52C156.52 44.41 155.13 43.28 153.01 43.28ZM174.75 40.4L173.73 45.57L167.21 45.57L168.24 40.4L165.9 40.4L163.38 53L165.72 53L166.78 47.65L173.3 47.65L172.23 53L174.56 53L177.08 40.4ZM187.8 47.49C187.8 44.86 186.04 43.28 183.38 43.28C180.15 43.28 177.83 45.64 177.83 48.9C177.83 51.45 179.67 53.13 182.57 53.13C184.04 53.13 185.5 52.69 186.51 51.79L185.57 50.23C184.91 50.86 183.9 51.22 182.8 51.22C180.95 51.22 180.06 50.39 180.03 48.86L187.66 48.86C187.75 48.45 187.8 47.98 187.8 47.49ZM183.27 45.08C184.76 45.08 185.75 45.89 185.73 47.37L180.23 47.37C180.64 45.96 181.74 45.08 183.27 45.08ZM197.94 43.39L197.67 44.81C197.02 43.78 195.89 43.28 194.39 43.28C191.31 43.28 188.97 45.62 188.97 48.9C188.97 51.56 190.85 53.13 193.2 53.13C194.46 53.13 195.53 52.73 196.34 52.01L196.14 53L198.28 53L200.19 43.39ZM193.78 51.2C192.16 51.2 191.24 50.28 191.24 48.79C191.24 46.66 192.65 45.19 194.55 45.19C196.17 45.19 197.09 46.11 197.09 47.6C197.09 49.72 195.69 51.2 193.78 51.2ZM201.23 53L203.48 53L206.15 39.64L203.9 39.64ZM210.97 45.26L213.56 45.26L213.92 43.46L211.33 43.46L211.78 41.26L209.53 41.26L209.1 43.46L207.53 43.46L207.17 45.26L208.74 45.26L207.82 49.8C207.77 50.07 207.75 50.32 207.75 50.55C207.75 52.17 208.86 53.13 210.5 53.13C211.29 53.13 212.14 52.98 212.82 52.55L212.43 50.89C212.05 51.15 211.6 51.27 211.17 51.27C210.38 51.27 210.03 50.86 210.03 50.19C210.03 50.07 210.05 49.92 210.07 49.78ZM221.68 43.28C220.47 43.28 219.38 43.6 218.51 44.34L219.45 39.64L217.2 39.64L214.53 53L216.78 53L217.79 48.01C218.17 46.14 219.3 45.24 220.94 45.24C222.26 45.24 222.87 45.87 222.87 46.99C222.87 47.2 222.85 47.46 222.8 47.73L221.75 53L224 53L225.06 47.67C225.14 47.28 225.19 46.88 225.19 46.54C225.19 44.41 223.79 43.28 221.68 43.28Z" />
</svg>