<?xml version="1.0" standalone="no"?>
<!DOCTYPE svg PUBLIC "-//W3C//DTD SVG 20010904//EN"
 "http://www.w3.org/TR/2001/REC-SVG-20010904/DTD/svg10.dtd">
<svg version="1.0" xmlns="http://www.w3.org/2000/svg"
 width="700.000000pt" height="700.000000pt" viewBox="0 0 700.000000 700.000000"
 preserveAspectRatio="xMidYMid meet">
<metadata>
Created by potrace 1.11, written by Peter Selinger 2001-2013
</metadata>
<g transform="translate(0.000000,700.000000) scale(0.100000,-0.100000)"
fill="#000000" stroke="none">
<path d="M4175 4968 c-84 -46 -153 -179 -180 -348 -3 -19 -7 -46 -10 -60 -13
-76 -17 -142 -20 -295 -4 -298 25 -486 97 -635 24 -49 61 -94 150 -185 65 -66
130 -137 144 -158 111 -165 141 -546 69 -900 -8 -42 -53 -137 -81 -174 -66
-87 -165 -86 -243 2 -38 43 -92 149 -117 228 -10 31 -21 57 -25 57 -14 0 -20
-71 -9 -112 32 -123 85 -232 143 -295 71 -78 144 -93 213 -47 47 32 57 44 93
114 29 56 65 172 75 245 3 22 8 56 11 75 12 79 15 143 15 295 -1 212 -8 286
-42 425 -36 147 -93 240 -218 355 -179 163 -230 300 -235 630 -3 223 10 347
51 472 30 93 63 145 110 173 89 56 173 6 251 -150 l38 -75 8 57 c9 54 7 61
-28 133 -40 80 -107 159 -150 175 -34 13 -85 12 -110 -2z"/>
<path d="M1079 4956 c-1 -6 -2 -663 -2 -1459 -2 -1279 0 -1450 13 -1456 8 -4
87 -6 175 -6 181 2 193 6 262 77 98 101 198 391 229 658 3 30 8 57 9 60 2 3 6
37 10 75 4 39 9 81 10 95 25 202 24 796 0 1010 -3 19 -7 55 -9 80 -46 403
-142 700 -264 816 -56 53 -74 57 -259 59 -115 1 -173 -2 -174 -9z m371 -141
c109 -55 198 -247 254 -546 14 -73 28 -163 31 -199 4 -36 9 -78 11 -95 24
-179 24 -790 -1 -960 -3 -16 -7 -51 -10 -77 -11 -103 -18 -145 -41 -257 -29
-138 -27 -129 -54 -211 -46 -135 -111 -238 -178 -277 -39 -23 -52 -25 -183
-27 -78 0 -146 2 -152 6 -13 8 -18 2649 -5 2658 4 3 71 5 150 4 116 -1 151 -5
178 -19z"/>
<path d="M2595 4960 c-1 -3 -3 -661 -3 -1462 0 -1069 4 -1458 12 -1460 6 -2
94 -3 196 -3 150 1 191 5 216 18 111 57 174 213 204 497 12 121 9 446 -6 564
-25 201 -82 365 -141 403 -29 19 -29 26 2 71 27 39 69 162 79 228 4 22 9 51
11 64 18 88 25 434 12 575 -26 273 -91 440 -191 492 -25 13 -66 17 -209 18
-98 0 -180 -2 -182 -5z m388 -144 c74 -37 132 -171 153 -356 15 -132 9 -474
-10 -570 -36 -177 -89 -273 -164 -297 -15 -5 -94 -9 -177 -8 l-150 0 -2 627
-1 626 154 0 c137 0 160 -3 197 -22z m0 -1360 c94 -18 159 -139 191 -353 14
-91 15 -513 1 -583 -35 -184 -60 -251 -116 -308 -42 -43 -78 -50 -266 -50
l-161 -1 1 647 2 647 40 5 c49 6 270 3 308 -4z"/>
<path d="M5294 4962 c-11 -8 -11 -2902 -1 -2919 4 -7 13 -10 20 -7 10 4 13
150 12 705 0 386 3 705 6 710 3 5 120 8 279 7 l274 -3 0 -707 c0 -571 2 -708
13 -712 7 -3 16 2 21 12 6 12 9 2874 3 2914 -1 3 -9 5 -18 4 -17 -3 -18 -43
-19 -687 l0 -684 -276 -3 c-256 -2 -276 -1 -280 15 -2 10 -3 318 -3 685 1 664
0 692 -31 670z"/>
</g>
</svg>
